<svg width="40" height="33" viewBox="0 0 40 33" fill="none" xmlns="http://www.w3.org/2000/svg">
<rect width="40" height="33" fill="#B17B99"/>
<path d="M26.1538 13.0588H25.5385V11.2941C25.5385 8.37529 23.0535 6 20 6C16.9465 6 14.4615 8.37529 14.4615 11.2941V13.0588H13.8462C12.8283 13.0588 12 13.8506 12 14.8235V24.2353C12 25.2082 12.8283 26 13.8462 26H26.1538C27.1717 26 28 25.2082 28 24.2353V14.8235C28 13.8506 27.1717 13.0588 26.1538 13.0588ZM15.6923 11.2941C15.6923 9.02353 17.6246 7.17647 20 7.17647C22.3754 7.17647 24.3077 9.02353 24.3077 11.2941V13.0588H15.6923V11.2941ZM26.7692 24.2353C26.7692 24.56 26.4935 24.8235 26.1538 24.8235H13.8462C13.5065 24.8235 13.2308 24.56 13.2308 24.2353V14.8235C13.2308 14.4988 13.5065 14.2353 13.8462 14.2353H26.1538C26.4935 14.2353 26.7692 14.4988 26.7692 14.8235V24.2353Z" fill="white"/>
</svg>
