<svg width="12" height="14" viewBox="0 0 12 14" fill="none" xmlns="http://www.w3.org/2000/svg">
<g clip-path="url(#clip0_174_59)">
<path d="M10.5 1.3999H5.09995C4.60375 1.3999 4.19995 1.871 4.19995 2.4499V4.5499C4.19995 4.7431 4.33435 4.8999 4.49995 4.8999C4.66555 4.8999 4.79995 4.7431 4.79995 4.5499V2.4499C4.79995 2.2567 4.93435 2.0999 5.09995 2.0999H9.63835L7.33315 3.2528C6.92215 3.4586 6.59995 4.0284 6.59995 4.5499V11.1999H5.09995C4.93435 11.1999 4.79995 11.0431 4.79995 10.8499V8.7499C4.79995 8.5567 4.66555 8.3999 4.49995 8.3999C4.33435 8.3999 4.19995 8.5567 4.19995 8.7499V10.8499C4.19995 11.4288 4.60375 11.8999 5.09995 11.8999H6.59995V12.9499C6.59995 13.253 6.70795 13.5106 6.89695 13.6555C7.00135 13.7353 7.12255 13.7759 7.25035 13.7759C7.35415 13.7759 7.46275 13.7493 7.56955 13.6961L10.6668 12.1477C11.0778 11.9419 11.4 11.3721 11.4 10.8499V2.4499C11.4 1.871 10.9962 1.3999 10.5 1.3999ZM10.8 10.8499C10.8 11.0956 10.6236 11.4071 10.4304 11.5037L7.33315 13.0521C7.27555 13.0808 7.23775 13.0787 7.22695 13.071C7.21615 13.0633 7.19995 13.0227 7.19995 12.9499V4.5499C7.19995 4.3042 7.37635 3.9927 7.56955 3.8961L10.7694 2.2959C10.7892 2.3421 10.8 2.3946 10.8 2.4499V10.8499V10.8499Z" fill="white"/>
<path d="M5.0124 6.40208L3.2124 4.30208C3.0954 4.16558 2.9052 4.16558 2.7882 4.30208C2.6712 4.43858 2.6712 4.66048 2.7882 4.79698L4.0758 6.29918H0.3C0.1344 6.29918 0 6.45598 0 6.64918C0 6.84238 0.1344 6.99918 0.3 6.99918H4.0758L2.7882 8.50138C2.6712 8.63788 2.6712 8.85978 2.7882 8.99628C2.847 9.06488 2.9238 9.09848 3.0006 9.09848C3.0774 9.09848 3.1542 9.06418 3.213 8.99628L5.013 6.89628C5.13 6.75978 5.13 6.53788 5.013 6.40138L5.0124 6.40208Z" fill="white"/>
</g>
<defs>
<clipPath id="clip0_174_59">
<rect width="12" height="14" fill="white"/>
</clipPath>
</defs>
</svg>
