<svg width="40" height="33" viewBox="0 0 40 33" fill="none" xmlns="http://www.w3.org/2000/svg">
<rect width="40" height="33" fill="#B17B99"/>
<path d="M19.5 16C16.467 16 14 13.533 14 10.5C14 7.467 16.467 5 19.5 5C22.533 5 25 7.467 25 10.5C25 13.533 22.533 16 19.5 16ZM19.5 6C17.019 6 15 8.019 15 10.5C15 12.981 17.019 15 19.5 15C21.981 15 24 12.981 24 10.5C24 8.019 21.981 6 19.5 6Z" fill="white"/>
<path d="M27.5 25H11.5C10.673 25 10 24.327 10 23.5C10 23.432 10.014 21.815 11.225 20.2C11.93 19.26 12.895 18.513 14.094 17.981C15.558 17.33 17.377 17 19.5 17C21.623 17 23.442 17.33 24.906 17.981C26.105 18.514 27.07 19.26 27.775 20.2C28.986 21.815 29 23.432 29 23.5C29 24.327 28.327 25 27.5 25ZM19.5 18C16.013 18 13.44 18.953 12.059 20.756C11.024 22.107 11.001 23.488 11 23.502C11 23.776 11.224 24 11.5 24H27.5C27.776 24 28 23.776 28 23.5C28 23.488 27.977 22.107 26.941 20.756C25.559 18.953 22.986 18 19.5 18Z" fill="white"/>
</svg>
