<svg width="10" height="10" viewBox="0 0 10 10" fill="none" xmlns="http://www.w3.org/2000/svg">
<g clip-path="url(#clip0_177_72)">
<path d="M4.75 5.5C3.2335 5.5 2 4.2665 2 2.75C2 1.2335 3.2335 0 4.75 0C6.2665 0 7.5 1.2335 7.5 2.75C7.5 4.2665 6.2665 5.5 4.75 5.5ZM4.75 0.5C3.5095 0.5 2.5 1.5095 2.5 2.75C2.5 3.9905 3.5095 5 4.75 5C5.9905 5 7 3.9905 7 2.75C7 1.5095 5.9905 0.5 4.75 0.5Z" fill="white"/>
<path d="M8.75 10H0.75C0.3365 10 0 9.6635 0 9.25C0 9.216 0.00700003 8.4075 0.6125 7.6C0.965 7.13 1.4475 6.7565 2.047 6.4905C2.779 6.165 3.6885 6 4.75 6C5.8115 6 6.721 6.165 7.453 6.4905C8.0525 6.757 8.535 7.13 8.8875 7.6C9.493 8.4075 9.5 9.216 9.5 9.25C9.5 9.6635 9.1635 10 8.75 10ZM4.75 6.5C3.0065 6.5 1.72 6.9765 1.0295 7.878C0.512 8.5535 0.5005 9.244 0.5 9.251C0.5 9.388 0.612 9.5 0.75 9.5H8.75C8.888 9.5 9 9.388 9 9.25C9 9.244 8.9885 8.5535 8.4705 7.878C7.7795 6.9765 6.493 6.5 4.75 6.5Z" fill="white"/>
</g>
<defs>
<clipPath id="clip0_177_72">
<rect width="10" height="10" fill="white"/>
</clipPath>
</defs>
</svg>
